<svg width="180" height="180" viewBox="0 0 180 180" fill="none" xmlns="http://www.w3.org/2000/svg">
  <!-- Background with rounded corners -->
  <rect width="180" height="180" rx="40" fill="url(#gradient)"/>
  
  <!-- AI Brain icon -->
  <path d="M67.5 45c-12.4 0-22.5 10.1-22.5 22.5 0 6.2 2.5 11.8 6.6 15.8-4.1 4-6.6 9.6-6.6 15.8 0 12.4 10.1 22.5 22.5 22.5h45c12.4 0 22.5-10.1 22.5-22.5 0-6.2-2.5-11.8-6.6-15.8 4.1-4 6.6-9.6 6.6-15.8 0-12.4-10.1-22.5-22.5-22.5h-45z" fill="white" fill-opacity="0.95"/>
  
  <!-- Circuit lines inside brain -->
  <path d="M75 60h11.25M93.75 60h11.25M75 82.5h33.75M82.5 71.25v11.25" stroke="#4F46E5" stroke-width="3" stroke-linecap="round"/>
  <circle cx="90" cy="71.25" r="2.25" fill="#4F46E5"/>
  <circle cx="101.25" cy="78.75" r="1.5" fill="#7C3AED"/>
  
  <!-- Caption lines -->
  <rect x="50.625" y="123.75" width="45" height="6.75" rx="3.375" fill="white" fill-opacity="0.9"/>
  <rect x="50.625" y="138.375" width="33.75" height="6.75" rx="3.375" fill="white" fill-opacity="0.75"/>
  <rect x="50.625" y="153" width="56.25" height="6.75" rx="3.375" fill="white" fill-opacity="0.6"/>
  
  <!-- Gradient definition -->
  <defs>
    <linearGradient id="gradient" x1="0%" y1="0%" x2="100%" y2="100%">
      <stop offset="0%" style="stop-color:#4F46E5;stop-opacity:1" />
      <stop offset="50%" style="stop-color:#6366F1;stop-opacity:1" />
      <stop offset="100%" style="stop-color:#7C3AED;stop-opacity:1" />
    </linearGradient>
  </defs>
</svg>
