<svg width="32" height="32" viewBox="0 0 32 32" fill="none" xmlns="http://www.w3.org/2000/svg">
  <!-- Background circle -->
  <circle cx="16" cy="16" r="16" fill="url(#gradient)"/>
  
  <!-- AI Brain icon -->
  <path d="M12 8c-2.2 0-4 1.8-4 4 0 1.1.4 2.1 1.1 2.8-.7.7-1.1 1.7-1.1 2.8 0 2.2 1.8 4 4 4h8c2.2 0 4-1.8 4-4 0-1.1-.4-2.1-1.1-2.8.7-.7 1.1-1.7 1.1-2.8 0-2.2-1.8-4-4-4h-8z" fill="white" fill-opacity="0.9"/>
  
  <!-- Circuit lines inside brain -->
  <path d="M13 11h2M17 11h2M13 15h6M15 13v2" stroke="#4F46E5" stroke-width="1" stroke-linecap="round"/>
  
  <!-- Caption lines -->
  <rect x="9" y="22" width="8" height="1.5" rx="0.75" fill="white" fill-opacity="0.8"/>
  <rect x="9" y="24.5" width="6" height="1.5" rx="0.75" fill="white" fill-opacity="0.6"/>
  
  <!-- Gradient definition -->
  <defs>
    <linearGradient id="gradient" x1="0%" y1="0%" x2="100%" y2="100%">
      <stop offset="0%" style="stop-color:#4F46E5;stop-opacity:1" />
      <stop offset="100%" style="stop-color:#7C3AED;stop-opacity:1" />
    </linearGradient>
  </defs>
</svg>
